<?xml version="1.0" encoding="UTF-8"?>
<svg xmlns="http://www.w3.org/2000/svg" width="440pt" height="491.274pt" viewBox="0 0 440 491.274">
<rect x="0" y="0" width="440" height="491.274" fill="#ffffff"/>
<g transform="translate(350.322 -8.597) scale(0.302)"><polyline points="0,85.02 0,127.53" fill="none" stroke="black" stroke-width="1" stroke-linejoin="miter"/><path d="M 2.711 120.984 L 0 127.53 M -2.711 120.984 L 0 127.53" fill="none" stroke="black" stroke-width="1"/><polyline points="0,155.87 0,198.38" fill="none" stroke="black" stroke-width="1" stroke-linejoin="miter"/><path d="M 2.711 191.834 L 0 198.38 M -2.711 191.834 L 0 198.38" fill="none" stroke="black" stroke-width="1"/><polyline points="-99.19,297.57 -205.465,297.57 -205.465,439.27" fill="none" stroke="black" stroke-width="1" stroke-linejoin="miter"/><path d="M -202.754 432.724 L -205.465 439.27 M -208.176 432.724 L -205.465 439.27" fill="none" stroke="black" stroke-width="1"/><polyline points="99.19,297.57 127.53,297.57 127.53,425.1 0,425.1" fill="none" stroke="black" stroke-width="1" stroke-linejoin="miter"/><polyline points="0,425.1 0,510.12" fill="none" stroke="black" stroke-width="1" stroke-linejoin="miter"/><path d="M 2.711 503.574 L 0 510.12 M -2.711 503.574 L 0 510.12" fill="none" stroke="black" stroke-width="1"/><polyline points="0,708.5 0,751.01" fill="none" stroke="black" stroke-width="1" stroke-linejoin="miter"/><polyline points="0,751.01 -205.465,751.01" fill="none" stroke="black" stroke-width="1" stroke-linejoin="miter"/><polyline points="-205.465,751.01 -205.465,793.52" fill="none" stroke="black" stroke-width="1" stroke-linejoin="miter"/><path d="M -202.754 786.974 L -205.465 793.52 M -208.176 786.974 L -205.465 793.52" fill="none" stroke="black" stroke-width="1"/><polyline points="0,751.01 205.465,751.01" fill="none" stroke="black" stroke-width="1" stroke-linejoin="miter"/><polyline points="205.465,751.01 205.465,793.52" fill="none" stroke="black" stroke-width="1" stroke-linejoin="miter"/><path d="M 208.176 786.974 L 205.465 793.52 M 202.754 786.974 L 205.465 793.52" fill="none" stroke="black" stroke-width="1"/><polyline points="-205.465,821.86 -205.465,850.2" fill="none" stroke="black" stroke-width="1" stroke-linejoin="miter"/><polyline points="205.465,821.86 205.465,850.2" fill="none" stroke="black" stroke-width="1" stroke-linejoin="miter"/><polyline points="-205.465,850.2 205.465,850.2" fill="none" stroke="black" stroke-width="1" stroke-linejoin="miter"/><polyline points="0,850.2 0,892.71" fill="none" stroke="black" stroke-width="1" stroke-linejoin="miter"/><polyline points="0,892.71 -205.465,892.71" fill="none" stroke="black" stroke-width="1" stroke-linejoin="miter"/><polyline points="-205.465,892.71 -205.465,935.22" fill="none" stroke="black" stroke-width="1" stroke-linejoin="miter"/><path d="M -202.754 928.674 L -205.465 935.22 M -208.176 928.674 L -205.465 935.22" fill="none" stroke="black" stroke-width="1"/><polyline points="0,892.71 205.465,892.71" fill="none" stroke="black" stroke-width="1" stroke-linejoin="miter"/><polyline points="205.465,892.71 205.465,935.22" fill="none" stroke="black" stroke-width="1" stroke-linejoin="miter"/><path d="M 208.176 928.674 L 205.465 935.22 M 202.754 928.674 L 205.465 935.22" fill="none" stroke="black" stroke-width="1"/><polyline points="-205.465,963.56 -205.465,991.9" fill="none" stroke="black" stroke-width="1" stroke-linejoin="miter"/><polyline points="205.465,963.56 205.465,991.9" fill="none" stroke="black" stroke-width="1" stroke-linejoin="miter"/><polyline points="-205.465,991.9 205.465,991.9" fill="none" stroke="black" stroke-width="1" stroke-linejoin="miter"/><polyline points="0,991.9 0,1034.41" fill="none" stroke="black" stroke-width="1" stroke-linejoin="miter"/><polyline points="0,1034.41 -205.465,1034.41" fill="none" stroke="black" stroke-width="1" stroke-linejoin="miter"/><polyline points="-205.465,1034.41 -205.465,1076.92" fill="none" stroke="black" stroke-width="1" stroke-linejoin="miter"/><path d="M -202.754 1070.374 L -205.465 1076.92 M -208.176 1070.374 L -205.465 1076.92" fill="none" stroke="black" stroke-width="1"/><polyline points="0,1034.41 205.465,1034.41" fill="none" stroke="black" stroke-width="1" stroke-linejoin="miter"/><polyline points="205.465,1034.41 205.465,1076.92" fill="none" stroke="black" stroke-width="1" stroke-linejoin="miter"/><path d="M 208.176 1070.374 L 205.465 1076.92 M 202.754 1070.374 L 205.465 1076.92" fill="none" stroke="black" stroke-width="1"/><polyline points="-205.465,1105.26 -205.465,1133.6" fill="none" stroke="black" stroke-width="1" stroke-linejoin="miter"/><polyline points="205.465,1105.26 205.465,1133.6" fill="none" stroke="black" stroke-width="1" stroke-linejoin="miter"/><polyline points="-205.465,1133.6 205.465,1133.6" fill="none" stroke="black" stroke-width="1" stroke-linejoin="miter"/><polyline points="0,1133.6 0,1176.11" fill="none" stroke="black" stroke-width="1" stroke-linejoin="miter"/><polyline points="0,1176.11 -205.465,1176.11" fill="none" stroke="black" stroke-width="1" stroke-linejoin="miter"/><polyline points="-205.465,1176.11 -205.465,1218.62" fill="none" stroke="black" stroke-width="1" stroke-linejoin="miter"/><path d="M -202.754 1212.074 L -205.465 1218.62 M -208.176 1212.074 L -205.465 1218.62" fill="none" stroke="black" stroke-width="1"/><polyline points="0,1176.11 205.465,1176.11" fill="none" stroke="black" stroke-width="1" stroke-linejoin="miter"/><polyline points="205.465,1176.11 205.465,1218.62" fill="none" stroke="black" stroke-width="1" stroke-linejoin="miter"/><path d="M 208.176 1212.074 L 205.465 1218.62 M 202.754 1212.074 L 205.465 1218.62" fill="none" stroke="black" stroke-width="1"/><polyline points="-205.465,1246.96 -205.465,1275.3" fill="none" stroke="black" stroke-width="1" stroke-linejoin="miter"/><polyline points="205.465,1246.96 205.465,1275.3" fill="none" stroke="black" stroke-width="1" stroke-linejoin="miter"/><polyline points="-205.465,1275.3 205.465,1275.3" fill="none" stroke="black" stroke-width="1" stroke-linejoin="miter"/><polyline points="0,1275.3 0,1317.81" fill="none" stroke="black" stroke-width="1" stroke-linejoin="miter"/><polyline points="0,1317.81 -205.465,1317.81" fill="none" stroke="black" stroke-width="1" stroke-linejoin="miter"/><polyline points="-205.465,1317.81 -205.465,1360.32" fill="none" stroke="black" stroke-width="1" stroke-linejoin="miter"/><path d="M -202.754 1353.774 L -205.465 1360.32 M -208.176 1353.774 L -205.465 1360.32" fill="none" stroke="black" stroke-width="1"/><polyline points="0,1317.81 205.465,1317.81" fill="none" stroke="black" stroke-width="1" stroke-linejoin="miter"/><polyline points="205.465,1317.81 205.465,1360.32" fill="none" stroke="black" stroke-width="1" stroke-linejoin="miter"/><path d="M 208.176 1353.774 L 205.465 1360.32 M 202.754 1353.774 L 205.465 1360.32" fill="none" stroke="black" stroke-width="1"/><polyline points="-205.465,1388.66 -205.465,1417" fill="none" stroke="black" stroke-width="1" stroke-linejoin="miter"/><polyline points="205.465,1388.66 205.465,1417" fill="none" stroke="black" stroke-width="1" stroke-linejoin="miter"/><polyline points="-205.465,1417 205.465,1417" fill="none" stroke="black" stroke-width="1" stroke-linejoin="miter"/><polyline points="0,1417 0,1459.51" fill="none" stroke="black" stroke-width="1" stroke-linejoin="miter"/><polyline points="0,1459.51 -205.465,1459.51" fill="none" stroke="black" stroke-width="1" stroke-linejoin="miter"/><polyline points="-205.465,1459.51 -205.465,1502.02" fill="none" stroke="black" stroke-width="1" stroke-linejoin="miter"/><path d="M -202.754 1495.474 L -205.465 1502.02 M -208.176 1495.474 L -205.465 1502.02" fill="none" stroke="black" stroke-width="1"/><polyline points="0,1459.51 205.465,1459.51" fill="none" stroke="black" stroke-width="1" stroke-linejoin="miter"/><polyline points="205.465,1459.51 205.465,1502.02" fill="none" stroke="black" stroke-width="1" stroke-linejoin="miter"/><path d="M 208.176 1495.474 L 205.465 1502.02 M 202.754 1495.474 L 205.465 1502.02" fill="none" stroke="black" stroke-width="1"/><polyline points="-205.465,1530.36 -205.465,1558.7" fill="none" stroke="black" stroke-width="1" stroke-linejoin="miter"/><polyline points="205.465,1530.36 205.465,1558.7" fill="none" stroke="black" stroke-width="1" stroke-linejoin="miter"/><polyline points="-205.465,1558.7 205.465,1558.7" fill="none" stroke="black" stroke-width="1" stroke-linejoin="miter"/><polyline points="0,1558.7 0,1579.955" fill="none" stroke="black" stroke-width="1" stroke-linejoin="miter"/><polyline points="-205.465,467.61 -205.465,481.78 -1147.77,481.78 -1147.77,1579.955 0,1579.955" fill="none" stroke="black" stroke-width="1" stroke-linejoin="miter"/><polyline points="0,1579.955 0,1601.21" fill="none" stroke="black" stroke-width="1" stroke-linejoin="miter"/><path d="M 2.711 1594.664 L 0 1601.21 M -2.711 1594.664 L 0 1601.21" fill="none" stroke="black" stroke-width="1"/><rect x="-42.51" y="42.51" width="85.02" height="42.51" rx="21.255" ry="21.255" fill="white" stroke="black" stroke-width="1" stroke-linejoin="miter"/><text x="0" y="63.765" font-family="DejaVu Sans Mono, monospace" font-size="12" font-weight="normal" text-anchor="middle" dominant-baseline="central"><tspan x="0" dy="0">Start</tspan></text><polygon points="-70.341,127.53 77.935,127.53 70.341,155.87 -77.935,155.87" fill="white" stroke="black" stroke-width="1" stroke-linejoin="miter"/><text x="0" y="141.7" font-family="DejaVu Sans Mono, monospace" font-size="12" font-weight="normal" text-anchor="middle" dominant-baseline="central"><tspan x="0" dy="0">scanf("%d", &amp;a)</tspan></text><polygon points="-99.19,297.57 0,198.38 99.19,297.57 0,396.76" fill="white" stroke="black" stroke-width="1" stroke-linejoin="miter"/><text x="0" y="297.57" font-family="DejaVu Sans Mono, monospace" font-size="12" font-weight="normal" text-anchor="middle" dominant-baseline="central"><tspan x="0" dy="0">if (a &lt; 1 || a &gt; 12)</tspan></text><polygon points="-275.806,439.27 -127.53,439.27 -135.124,467.61 -283.4,467.61" fill="white" stroke="black" stroke-width="1" stroke-linejoin="miter"/><text x="-205.465" y="453.44" font-family="DejaVu Sans Mono, monospace" font-size="12" font-weight="normal" text-anchor="middle" dominant-baseline="central"><tspan x="-205.465" dy="0">printf("O net...")</tspan></text><polygon points="-99.19,609.31 0,510.12 99.19,609.31 0,708.5" fill="white" stroke="black" stroke-width="1" stroke-linejoin="miter"/><text x="0" y="609.31" font-family="DejaVu Sans Mono, monospace" font-size="12" font-weight="normal" text-anchor="middle" dominant-baseline="central"><tspan x="0" dy="0">switch (a)</tspan></text><polygon points="-275.806,793.52 -127.53,793.52 -135.124,821.86 -283.4,821.86" fill="white" stroke="black" stroke-width="1" stroke-linejoin="miter"/><text x="-205.465" y="807.69" font-family="DejaVu Sans Mono, monospace" font-size="12" font-weight="normal" text-anchor="middle" dominant-baseline="central"><tspan x="-205.465" dy="0">printf("Yanvar")</tspan></text><polygon points="135.124,793.52 283.4,793.52 275.806,821.86 127.53,821.86" fill="white" stroke="black" stroke-width="1" stroke-linejoin="miter"/><text x="205.465" y="807.69" font-family="DejaVu Sans Mono, monospace" font-size="12" font-weight="normal" text-anchor="middle" dominant-baseline="central"><tspan x="205.465" dy="0">printf("Fevral")</tspan></text><polygon points="-275.806,935.22 -127.53,935.22 -135.124,963.56 -283.4,963.56" fill="white" stroke="black" stroke-width="1" stroke-linejoin="miter"/><text x="-205.465" y="949.39" font-family="DejaVu Sans Mono, monospace" font-size="12" font-weight="normal" text-anchor="middle" dominant-baseline="central"><tspan x="-205.465" dy="0">printf("Mart")</tspan></text><polygon points="135.124,935.22 283.4,935.22 275.806,963.56 127.53,963.56" fill="white" stroke="black" stroke-width="1" stroke-linejoin="miter"/><text x="205.465" y="949.39" font-family="DejaVu Sans Mono, monospace" font-size="12" font-weight="normal" text-anchor="middle" dominant-baseline="central"><tspan x="205.465" dy="0">printf("Aprel")</tspan></text><polygon points="-275.806,1076.92 -127.53,1076.92 -135.124,1105.26 -283.4,1105.26" fill="white" stroke="black" stroke-width="1" stroke-linejoin="miter"/><text x="-205.465" y="1091.09" font-family="DejaVu Sans Mono, monospace" font-size="12" font-weight="normal" text-anchor="middle" dominant-baseline="central"><tspan x="-205.465" dy="0">printf("May")</tspan></text><polygon points="135.124,1076.92 283.4,1076.92 275.806,1105.26 127.53,1105.26" fill="white" stroke="black" stroke-width="1" stroke-linejoin="miter"/><text x="205.465" y="1091.09" font-family="DejaVu Sans Mono, monospace" font-size="12" font-weight="normal" text-anchor="middle" dominant-baseline="central"><tspan x="205.465" dy="0">printf("Iyun")</tspan></text><polygon points="-275.806,1218.62 -127.53,1218.62 -135.124,1246.96 -283.4,1246.96" fill="white" stroke="black" stroke-width="1" stroke-linejoin="miter"/><text x="-205.465" y="1232.79" font-family="DejaVu Sans Mono, monospace" font-size="12" font-weight="normal" text-anchor="middle" dominant-baseline="central"><tspan x="-205.465" dy="0">printf("Iyul")</tspan></text><polygon points="135.124,1218.62 283.4,1218.62 275.806,1246.96 127.53,1246.96" fill="white" stroke="black" stroke-width="1" stroke-linejoin="miter"/><text x="205.465" y="1232.79" font-family="DejaVu Sans Mono, monospace" font-size="12" font-weight="normal" text-anchor="middle" dominant-baseline="central"><tspan x="205.465" dy="0">printf("Avgust")</tspan></text><polygon points="-275.806,1360.32 -127.53,1360.32 -135.124,1388.66 -283.4,1388.66" fill="white" stroke="black" stroke-width="1" stroke-linejoin="miter"/><text x="-205.465" y="1374.49" font-family="DejaVu Sans Mono, monospace" font-size="12" font-weight="normal" text-anchor="middle" dominant-baseline="central"><tspan x="-205.465" dy="0">printf("Sentyabr")</tspan></text><polygon points="135.124,1360.32 283.4,1360.32 275.806,1388.66 127.53,1388.66" fill="white" stroke="black" stroke-width="1" stroke-linejoin="miter"/><text x="205.465" y="1374.49" font-family="DejaVu Sans Mono, monospace" font-size="12" font-weight="normal" text-anchor="middle" dominant-baseline="central"><tspan x="205.465" dy="0">printf("Oktyabr")</tspan></text><polygon points="-275.806,1502.02 -127.53,1502.02 -135.124,1530.36 -283.4,1530.36" fill="white" stroke="black" stroke-width="1" stroke-linejoin="miter"/><text x="-205.465" y="1516.19" font-family="DejaVu Sans Mono, monospace" font-size="12" font-weight="normal" text-anchor="middle" dominant-baseline="central"><tspan x="-205.465" dy="0">printf("Noyabr")</tspan></text><polygon points="135.124,1502.02 283.4,1502.02 275.806,1530.36 127.53,1530.36" fill="white" stroke="black" stroke-width="1" stroke-linejoin="miter"/><text x="205.465" y="1516.19" font-family="DejaVu Sans Mono, monospace" font-size="12" font-weight="normal" text-anchor="middle" dominant-baseline="central"><tspan x="205.465" dy="0">printf("Dekabr")</tspan></text><rect x="-42.51" y="1601.21" width="85.02" height="42.51" rx="21.255" ry="21.255" fill="white" stroke="black" stroke-width="1" stroke-linejoin="miter"/><text x="0" y="1622.465" font-family="DejaVu Sans Mono, monospace" font-size="12" font-weight="normal" text-anchor="middle" dominant-baseline="central"><tspan x="0" dy="0">End</tspan></text><text x="-127.53" y="285.57" font-family="DejaVu Sans Mono, monospace" font-size="12" font-weight="normal" text-anchor="middle" dominant-baseline="central">да</text><text x="127.53" y="285.57" font-family="DejaVu Sans Mono, monospace" font-size="12" font-weight="normal" text-anchor="middle" dominant-baseline="central">нет</text><text x="-219.465" y="781.52" font-family="DejaVu Sans Mono, monospace" font-size="12" font-weight="normal" text-anchor="end" dominant-baseline="central">a = 1</text><text x="219.465" y="781.52" font-family="DejaVu Sans Mono, monospace" font-size="12" font-weight="normal" text-anchor="start" dominant-baseline="central">a = 2</text><text x="-219.465" y="923.22" font-family="DejaVu Sans Mono, monospace" font-size="12" font-weight="normal" text-anchor="end" dominant-baseline="central">a = 3</text><text x="219.465" y="923.22" font-family="DejaVu Sans Mono, monospace" font-size="12" font-weight="normal" text-anchor="start" dominant-baseline="central">a = 4</text><text x="-219.465" y="1064.92" font-family="DejaVu Sans Mono, monospace" font-size="12" font-weight="normal" text-anchor="end" dominant-baseline="central">a = 5</text><text x="219.465" y="1064.92" font-family="DejaVu Sans Mono, monospace" font-size="12" font-weight="normal" text-anchor="start" dominant-baseline="central">a = 6</text><text x="-219.465" y="1206.62" font-family="DejaVu Sans Mono, monospace" font-size="12" font-weight="normal" text-anchor="end" dominant-baseline="central">a = 7</text><text x="219.465" y="1206.62" font-family="DejaVu Sans Mono, monospace" font-size="12" font-weight="normal" text-anchor="start" dominant-baseline="central">a = 8</text><text x="-219.465" y="1348.32" font-family="DejaVu Sans Mono, monospace" font-size="12" font-weight="normal" text-anchor="end" dominant-baseline="central">a = 9</text><text x="219.465" y="1348.32" font-family="DejaVu Sans Mono, monospace" font-size="12" font-weight="normal" text-anchor="start" dominant-baseline="central">a = 10</text><text x="-219.465" y="1490.02" font-family="DejaVu Sans Mono, monospace" font-size="12" font-weight="normal" text-anchor="end" dominant-baseline="central">a = 11</text><text x="219.465" y="1490.02" font-family="DejaVu Sans Mono, monospace" font-size="12" font-weight="normal" text-anchor="start" dominant-baseline="central">a = 12</text></g>
</svg>
