<?xml version="1.0" encoding="UTF-8"?>
<svg xmlns="http://www.w3.org/2000/svg" width="440pt" height="554.879pt" viewBox="0 0 440 554.879">
<rect x="0" y="0" width="440" height="554.879" fill="#ffffff"/>
<g transform="translate(318.064 -27.246) scale(0.956)"><polyline points="0,85.02 0,127.53" fill="none" stroke="black" stroke-width="1" stroke-linejoin="miter"/><path d="M 2.711 120.984 L 0 127.53 M -2.711 120.984 L 0 127.53" fill="none" stroke="black" stroke-width="1"/><polyline points="0,184.21 0,226.72" fill="none" stroke="black" stroke-width="1" stroke-linejoin="miter"/><path d="M 2.711 220.174 L 0 226.72 M -2.711 220.174 L 0 226.72" fill="none" stroke="black" stroke-width="1"/><polyline points="-77.935,304.655 -212.55,304.655 -212.55,425.1" fill="none" stroke="black" stroke-width="1" stroke-linejoin="miter"/><path d="M -209.839 418.554 L -212.55 425.1 M -215.261 418.554 L -212.55 425.1" fill="none" stroke="black" stroke-width="1"/><polyline points="-212.55,481.78 -212.55,510.12 0,510.12" fill="none" stroke="black" stroke-width="1" stroke-linejoin="miter"/><polyline points="77.935,304.655 113.36,304.655 113.36,510.12 0,510.12" fill="none" stroke="black" stroke-width="1" stroke-linejoin="miter"/><polyline points="0,510.12 0,552.63" fill="none" stroke="black" stroke-width="1" stroke-linejoin="miter"/><path d="M 2.711 546.084 L 0 552.63 M -2.711 546.084 L 0 552.63" fill="none" stroke="black" stroke-width="1"/><rect x="-42.51" y="42.51" width="85.02" height="42.51" rx="21.255" ry="21.255" fill="white" stroke="black" stroke-width="1" stroke-linejoin="miter"/><text x="0" y="63.765" font-family="DejaVu Sans Mono, monospace" font-size="12" font-weight="normal" text-anchor="middle" dominant-baseline="central"><tspan x="0" dy="0">Start</tspan></text><polygon points="-91.088,127.53 106.275,127.53 91.088,184.21 -106.275,184.21" fill="white" stroke="black" stroke-width="1" stroke-linejoin="miter"/><text x="0" y="155.87" font-family="DejaVu Sans Mono, monospace" font-size="12" font-weight="normal" text-anchor="middle" dominant-baseline="central"><tspan x="0" dy="-9">scanf_s("%lf%c", &amp;radius,</tspan><tspan x="0" dy="18">&amp;ch, 1)</tspan></text><polygon points="-77.935,304.655 0,226.72 77.935,304.655 0,382.59" fill="white" stroke="black" stroke-width="1" stroke-linejoin="miter"/><text x="0" y="304.655" font-family="DejaVu Sans Mono, monospace" font-size="12" font-weight="normal" text-anchor="middle" dominant-baseline="central"><tspan x="0" dy="0">if (radius &gt; 0)</tspan></text><polygon points="-303.638,425.1 -106.275,425.1 -121.462,481.78 -318.825,481.78" fill="white" stroke="black" stroke-width="1" stroke-linejoin="miter"/><text x="-212.55" y="453.44" font-family="DejaVu Sans Mono, monospace" font-size="12" font-weight="normal" text-anchor="middle" dominant-baseline="central"><tspan x="-212.55" dy="0">printf("P =...")</tspan></text><rect x="-42.51" y="552.63" width="85.02" height="42.51" rx="21.255" ry="21.255" fill="white" stroke="black" stroke-width="1" stroke-linejoin="miter"/><text x="0" y="573.885" font-family="DejaVu Sans Mono, monospace" font-size="12" font-weight="normal" text-anchor="middle" dominant-baseline="central"><tspan x="0" dy="0">End</tspan></text><text x="-106.275" y="292.655" font-family="DejaVu Sans Mono, monospace" font-size="12" font-weight="normal" text-anchor="middle" dominant-baseline="central">yes</text><text x="106.275" y="292.655" font-family="DejaVu Sans Mono, monospace" font-size="12" font-weight="normal" text-anchor="middle" dominant-baseline="central">no</text></g>
</svg>
