<?xml version="1.0" encoding="UTF-8"?>
<svg xmlns="http://www.w3.org/2000/svg" width="440pt" height="612.351pt" viewBox="0 0 440 612.351">
<rect x="0" y="0" width="440" height="612.351" fill="#ffffff"/>
<g transform="translate(365.641 -11.964) scale(0.42)"><polyline points="0,70.85 0,113.36" fill="none" stroke="black" stroke-width="1" stroke-linejoin="miter"/><path d="M 2.711 106.814 L 0 113.36 M -2.711 106.814 L 0 113.36" fill="none" stroke="black" stroke-width="1"/><polyline points="0,141.7 0,184.21" fill="none" stroke="black" stroke-width="1" stroke-linejoin="miter"/><path d="M 2.711 177.664 L 0 184.21 M -2.711 177.664 L 0 184.21" fill="none" stroke="black" stroke-width="1"/><polyline points="0,212.55 0,255.06" fill="none" stroke="black" stroke-width="1" stroke-linejoin="miter"/><path d="M 2.711 248.514 L 0 255.06 M -2.711 248.514 L 0 255.06" fill="none" stroke="black" stroke-width="1"/><polyline points="0,283.4 0,325.91" fill="none" stroke="black" stroke-width="1" stroke-linejoin="miter"/><path d="M 2.711 319.364 L 0 325.91 M -2.711 319.364 L 0 325.91" fill="none" stroke="black" stroke-width="1"/><polyline points="-127.53,453.44 -453.44,453.44 -453.44,623.48" fill="none" stroke="black" stroke-width="1" stroke-linejoin="miter"/><path d="M -450.729 616.934 L -453.44 623.48 M -456.151 616.934 L -453.44 623.48" fill="none" stroke="black" stroke-width="1"/><polyline points="-453.44,651.82 -453.44,694.33" fill="none" stroke="black" stroke-width="1" stroke-linejoin="miter"/><path d="M -450.729 687.784 L -453.44 694.33 M -456.151 687.784 L -453.44 694.33" fill="none" stroke="black" stroke-width="1"/><polyline points="-453.44,722.67 -453.44,765.18" fill="none" stroke="black" stroke-width="1" stroke-linejoin="miter"/><path d="M -450.729 758.634 L -453.44 765.18 M -456.151 758.634 L -453.44 765.18" fill="none" stroke="black" stroke-width="1"/><polyline points="-453.44,793.52 -453.44,836.03" fill="none" stroke="black" stroke-width="1" stroke-linejoin="miter"/><path d="M -450.729 829.484 L -453.44 836.03 M -456.151 829.484 L -453.44 836.03" fill="none" stroke="black" stroke-width="1"/><polyline points="-453.44,864.37 -453.44,906.88" fill="none" stroke="black" stroke-width="1" stroke-linejoin="miter"/><path d="M -450.729 900.334 L -453.44 906.88 M -456.151 900.334 L -453.44 906.88" fill="none" stroke="black" stroke-width="1"/><polyline points="-580.97,1034.41 -751.01,1034.41 -751.01,1204.45" fill="none" stroke="black" stroke-width="1" stroke-linejoin="miter"/><path d="M -748.299 1197.904 L -751.01 1204.45 M -753.721 1197.904 L -751.01 1204.45" fill="none" stroke="black" stroke-width="1"/><polyline points="-751.01,1232.79 -751.01,1261.13 -453.44,1261.13" fill="none" stroke="black" stroke-width="1" stroke-linejoin="miter"/><polyline points="-325.91,1034.41 -297.57,1034.41 -297.57,1261.13 -453.44,1261.13" fill="none" stroke="black" stroke-width="1" stroke-linejoin="miter"/><polyline points="-453.44,1261.13 -453.44,1289.47 0,1289.47" fill="none" stroke="black" stroke-width="1" stroke-linejoin="miter"/><polyline points="127.53,453.44 155.87,453.44 155.87,1289.47 0,1289.47" fill="none" stroke="black" stroke-width="1" stroke-linejoin="miter"/><polyline points="0,1289.47 0,1331.98" fill="none" stroke="black" stroke-width="1" stroke-linejoin="miter"/><path d="M 2.711 1325.434 L 0 1331.98 M -2.711 1325.434 L 0 1331.98" fill="none" stroke="black" stroke-width="1"/><polyline points="0,1360.32 0,1388.66" fill="none" stroke="black" stroke-width="1" stroke-linejoin="miter"/><polyline points="0,1388.66 0,1431.17" fill="none" stroke="black" stroke-width="1" stroke-linejoin="miter"/><path d="M 2.711 1424.624 L 0 1431.17 M -2.711 1424.624 L 0 1431.17" fill="none" stroke="black" stroke-width="1"/><circle cx="0" cy="56.68" r="14.17" fill="white" stroke="black" stroke-width="1" stroke-linejoin="miter"/><text x="0" y="56.68" font-family="DejaVu Sans Mono, monospace" font-size="12" font-weight="normal" text-anchor="middle" dominant-baseline="central"><tspan x="0" dy="0">А</tspan></text><rect x="-141.7" y="113.36" width="283.4" height="28.34" fill="white" stroke="black" stroke-width="1" stroke-linejoin="miter"/><text x="0" y="127.53" font-family="DejaVu Sans Mono, monospace" font-size="12" font-weight="normal" text-anchor="middle" dominant-baseline="central"><tspan x="0" dy="0">d = 0</tspan></text><polygon points="-70.85,184.21 70.85,184.21 85.02,198.38 85.02,212.55 -85.02,212.55 -85.02,198.38" fill="white" stroke="black" stroke-width="1" stroke-linejoin="miter"/><text x="0" y="198.38" font-family="DejaVu Sans Mono, monospace" font-size="12" font-weight="normal" text-anchor="middle" dominant-baseline="central"><tspan x="0" dy="0">while n &lt; 10000</tspan></text><rect x="-141.7" y="255.06" width="283.4" height="28.34" fill="white" stroke="black" stroke-width="1" stroke-linejoin="miter"/><text x="0" y="269.23" font-family="DejaVu Sans Mono, monospace" font-size="12" font-weight="normal" text-anchor="middle" dominant-baseline="central"><tspan x="0" dy="0">n++</tspan></text><polygon points="-127.53,453.44 0,325.91 127.53,453.44 0,580.97" fill="white" stroke="black" stroke-width="1" stroke-linejoin="miter"/><text x="0" y="453.44" font-family="DejaVu Sans Mono, monospace" font-size="12" font-weight="normal" text-anchor="middle" dominant-baseline="central"><tspan x="0" dy="-9">if (n % 2 == 0 &amp;&amp; n %</tspan><tspan x="0" dy="18">7 == 0 &amp;&amp; n % 11 == 0)</tspan></text><rect x="-595.14" y="623.48" width="283.4" height="28.34" fill="white" stroke="black" stroke-width="1" stroke-linejoin="miter"/><text x="-453.44" y="637.65" font-family="DejaVu Sans Mono, monospace" font-size="12" font-weight="normal" text-anchor="middle" dominant-baseline="central"><tspan x="-453.44" dy="0">a = (n - n % 1000) / 1000</tspan></text><rect x="-595.14" y="694.33" width="283.4" height="28.34" fill="white" stroke="black" stroke-width="1" stroke-linejoin="miter"/><text x="-453.44" y="708.5" font-family="DejaVu Sans Mono, monospace" font-size="12" font-weight="normal" text-anchor="middle" dominant-baseline="central"><tspan x="-453.44" dy="0">b = (n - a * 1000) / 100</tspan></text><rect x="-595.14" y="765.18" width="283.4" height="28.34" fill="white" stroke="black" stroke-width="1" stroke-linejoin="miter"/><text x="-453.44" y="779.35" font-family="DejaVu Sans Mono, monospace" font-size="12" font-weight="normal" text-anchor="middle" dominant-baseline="central"><tspan x="-453.44" dy="0">c = (n - a * 1000 - b * 100) / 10</tspan></text><rect x="-595.14" y="836.03" width="283.4" height="28.34" fill="white" stroke="black" stroke-width="1" stroke-linejoin="miter"/><text x="-453.44" y="850.2" font-family="DejaVu Sans Mono, monospace" font-size="12" font-weight="normal" text-anchor="middle" dominant-baseline="central"><tspan x="-453.44" dy="0">d = n - a * 1000 - b *100 - c * 10</tspan></text><polygon points="-580.97,1034.41 -453.44,906.88 -325.91,1034.41 -453.44,1161.94" fill="white" stroke="black" stroke-width="1" stroke-linejoin="miter"/><text x="-453.44" y="1034.41" font-family="DejaVu Sans Mono, monospace" font-size="12" font-weight="normal" text-anchor="middle" dominant-baseline="central"><tspan x="-453.44" dy="-27">if (( (a == b || a ==</tspan><tspan x="-453.44" dy="18">c || a == d) &amp;&amp; (c ==</tspan><tspan x="-453.44" dy="18">b || c == d) ) &amp;&amp; (a</tspan><tspan x="-453.44" dy="18">+ b + c + d == 30))</tspan></text><polygon points="-849.691,1204.45 -644.735,1204.45 -652.329,1232.79 -857.285,1232.79" fill="white" stroke="black" stroke-width="1" stroke-linejoin="miter"/><text x="-751.01" y="1218.62" font-family="DejaVu Sans Mono, monospace" font-size="12" font-weight="normal" text-anchor="middle" dominant-baseline="central"><tspan x="-751.01" dy="0">printf("Nomer avto =...")</tspan></text><polygon points="-85.02,1331.98 85.02,1331.98 85.02,1346.15 70.85,1360.32 -70.85,1360.32 -85.02,1346.15" fill="white" stroke="black" stroke-width="1" stroke-linejoin="miter"/><text x="0" y="1346.15" font-family="DejaVu Sans Mono, monospace" font-size="12" font-weight="normal" text-anchor="middle" dominant-baseline="central"><tspan x="0" dy="0">1</tspan></text><rect x="-42.51" y="1431.17" width="85.02" height="42.51" rx="21.255" ry="21.255" fill="white" stroke="black" stroke-width="1" stroke-linejoin="miter"/><text x="0" y="1452.425" font-family="DejaVu Sans Mono, monospace" font-size="12" font-weight="normal" text-anchor="middle" dominant-baseline="central"><tspan x="0" dy="0">End</tspan></text><text x="-155.87" y="441.44" font-family="DejaVu Sans Mono, monospace" font-size="12" font-weight="normal" text-anchor="middle" dominant-baseline="central">yes</text><text x="-609.31" y="1022.41" font-family="DejaVu Sans Mono, monospace" font-size="12" font-weight="normal" text-anchor="middle" dominant-baseline="central">yes</text><text x="-297.57" y="1022.41" font-family="DejaVu Sans Mono, monospace" font-size="12" font-weight="normal" text-anchor="middle" dominant-baseline="central">no</text><text x="155.87" y="441.44" font-family="DejaVu Sans Mono, monospace" font-size="12" font-weight="normal" text-anchor="middle" dominant-baseline="central">no</text></g>
</svg>
